<svg xmlns="http://www.w3.org/2000/svg" viewBox="0 0 400 400" width="400" height="400">
  <title>Biskit</title>
  <!-- X profile picture. Upload a FULL SQUARE — X applies the circular mask
       itself, and a pre-cropped disc arrives with white corners. Head only and
       no text, because X renders this as small as 48px, and the ear tips stay
       inside the circle X will cut. Generated by brand/build.mjs. -->

  <defs>
    
    <radialGradient id="iris-a" cx="38%" cy="30%" r="72%">
      <stop offset="0%" stop-color="#8fd4f7"/>
      <stop offset="55%" stop-color="#4ba8e8"/>
      <stop offset="100%" stop-color="#2a72b8"/>
    </radialGradient>
    <linearGradient id="fur-a" x1="0" y1="0" x2="1" y2="1">
      <stop offset="0%" stop-color="#ffffff"/>
      <stop offset="100%" stop-color="#ede2f6"/>
    </linearGradient>
    
    <radialGradient id="lift" cx="50%" cy="50%" r="50%">
      <stop offset="0%" stop-color="#3d2c63" stop-opacity=".38"/>
      <stop offset="55%" stop-color="#3d2c63" stop-opacity=".17"/>
      <stop offset="100%" stop-color="#3d2c63" stop-opacity="0"/>
    </radialGradient>
    <filter id="soft" x="-40%" y="-40%" width="180%" height="180%">
      <feGaussianBlur stdDeviation="10"/>
    </filter>
    <filter id="cast" x="-30%" y="-30%" width="160%" height="180%">
      <feDropShadow dx="0" dy="16" stdDeviation="16" flood-color="#2e2340" flood-opacity=".30"/>
    </filter>
    <filter id="castSm" x="-30%" y="-30%" width="160%" height="180%">
      <feDropShadow dx="0" dy="7" stdDeviation="7" flood-color="#2e2340" flood-opacity=".34"/>
    </filter>
    <linearGradient id="skin-a" x1="0.15" y1="0" x2="0.72" y2="1">
      <stop offset="0%" stop-color="#c9b3ee"/>
      <stop offset="50%" stop-color="#a88bd8"/>
      <stop offset="100%" stop-color="#7d63b6"/>
    </linearGradient>
    <radialGradient id="key-a" cx="50%" cy="14%" r="70%">
      <stop offset="0%" stop-color="#ffffff" stop-opacity=".34"/>
      <stop offset="100%" stop-color="#ffffff" stop-opacity="0"/>
    </radialGradient>
    <radialGradient id="rim-a" cx="50%" cy="50%" r="52%">
      <stop offset="78%" stop-color="#2e2340" stop-opacity="0"/>
      <stop offset="100%" stop-color="#2e2340" stop-opacity=".26"/>
    </radialGradient>
  </defs>

  <g>
    <rect width="400" height="400" fill="url(#skin-a)"/>
    <ellipse cx="200" cy="40" rx="248" ry="176" fill="url(#key-a)"/>

    <path d="M76 79.2Q78.176 89.824 88.8 92Q78.176 94.176 76 104.8Q73.824 94.176 63.2 92Q73.824 89.824 76 79.2Z" fill="#ffffff" opacity="0.62"/>
    <path d="M332 58.8Q333.564 66.436 341.2 68Q333.564 69.564 332 77.2Q330.436 69.564 322.8 68Q330.436 66.436 332 58.8Z" fill="#ffffff" opacity="0.5"/>
    <path d="M348 241.2Q349.156 246.844 354.8 248Q349.156 249.156 348 254.8Q346.844 249.156 341.2 248Q346.844 246.844 348 241.2Z" fill="#ffffff" opacity="0.42"/>

    <ellipse cx="200" cy="358" rx="120" ry="24.8" fill="url(#lift)"/>

    <g filter="url(#cast)">
      <g transform="translate(200 208) scale(1.2353) translate(-150 -135.1)">
  <g>
    <!-- Ears seat on the skull: a soft leaf with a rounded tip whose
         base chord is buried inside the head, with the inner pink
         following the shell rather than being a second triangle.
         The skull outline is left open where each one crosses it. -->
    <g stroke="#7a6494" stroke-width="12" paint-order="stroke fill">
      <path
        d="M174 100Q180 64 197 36Q212 22 227 42Q236 76 220 108Z"
        fill="url(#fur-a)"
      />
      <path
        d="M126 100Q120 64 103 36Q88 22 73 42Q64 76 80 108Z"
        fill="url(#fur-a)"
      />
    </g>
    <g fill="#ffc4d6">
      <path d="M185.9 97.6Q189.9 73.9 201.1 55.4Q211 46.1 220.9 59.3Q226.8 81.8 216.3 102.9Z" />
      <path d="M114.1 97.6Q110.1 73.9 98.9 55.4Q89 46.1 79.1 59.3Q73.2 81.8 83.7 102.9Z" />
    </g>

    <path
      d="M224.5 88.6A94 94 0 1 1 75.5 88.6M111.7 60.2A94 94 0 0 1 188.3 60.2"
      fill="none"
      stroke="#7a6494"
      stroke-width="12"
      stroke-linecap="round"
    />
    <circle cx="150" cy="146" r="94" fill="url(#fur-a)" />

    <!-- No fur curl here either — see PetArt.ts. A fur-filled shape
         on a fur-filled skull shows only its outline, so it reads
         as a scratch when low and as a third ear when tall. -->


    <ellipse cx="94" cy="186" rx="22" ry="13" fill="#ff8cb8" opacity=".55" />
    <ellipse cx="206" cy="186" rx="22" ry="13" fill="#ff8cb8" opacity=".55" />

    <!-- The eye carries NO outline. A dark ring around a white oval,
         twice, on a white face, reads as a pair of spectacles — which
         is exactly what it was doing. The iris is grown until it all
         but fills the socket instead, so the saturated blue and the
         pupil carry the shape on their own.

         Highlights sit far enough out to clip the pupil's edge rather
         than bite its centre; overlapping the middle leaves the pupil
         a lopsided comma instead of a disc. Both eyes are lit from the
         same side, not mirrored — mirrored highlights read as a squint. -->
    <g>
      <ellipse cx="100" cy="156" rx="32" ry="36" fill="#fff" />
      <ellipse cx="100" cy="160" rx="29" ry="31" fill="url(#iris-a)" />
      <circle cx="100" cy="163" r="10.5" fill="#2a2038" />
      <circle cx="88" cy="149" r="8.5" fill="#fff" />
      <circle cx="112" cy="175" r="5" fill="#fff" opacity=".92" />

      <ellipse cx="200" cy="156" rx="32" ry="36" fill="#fff" />
      <ellipse cx="200" cy="160" rx="29" ry="31" fill="url(#iris-a)" />
      <circle cx="200" cy="163" r="10.5" fill="#2a2038" />
      <circle cx="188" cy="149" r="8.5" fill="#fff" />
      <circle cx="212" cy="175" r="5" fill="#fff" opacity=".92" />
    </g>

    <!-- Lashes stay thin. At a slab weight they read as angry
         eyebrows rather than lashes. -->
    <g stroke="#7a6494" stroke-width="5.4" stroke-linecap="round" fill="none">
      <path d="M78 139Q71 131 63 122M73 150Q66 146 59 142" />
      <path d="M222 139Q229 131 237 122M227 150Q234 146 241 142" />
    </g>

    <!-- Muzzle: two cheek lobes over a shadow, so it sits proud of
         the face rather than being a pale smear. -->
    <ellipse cx="150" cy="211" rx="41" ry="25" fill="#ede2f6" />
    <g fill="#fdf6fb">
      <ellipse cx="131" cy="206" rx="26" ry="22" />
      <ellipse cx="169" cy="206" rx="26" ry="22" />
      <ellipse cx="150" cy="202" rx="31" ry="17" />
    </g>
    <!-- No long whiskers here either — see PetArt.ts. Six strokes
         reaching past the cheeks put more dark line on the face than
         the eyes carry, and they cross the head outline into the
         background, which reads as scratches. Only the roots stay. -->
    <path
      d="M141 194H159L157 200L150 207.5L143 200Z"
      fill="#ff9ec4"
      stroke="#7a6494"
      stroke-width="3.6"
      stroke-linejoin="round"
    />
    <ellipse cx="147" cy="197" rx="3" ry="1.7" fill="#fff3f8" opacity=".75" />
    <g fill="none" stroke="#7a6494" stroke-width="5" stroke-linecap="round">
      <path d="M150 207v3M150 210q-12 15-23-2M150 210q12 15 23-2" />
    </g>
  </g>
      </g>
    </g>

    <rect width="400" height="400" fill="url(#rim-a)"/>
  </g>
</svg>
